# xmcd CD database file
#
# Track frame offsets:
#	150
#	21978
#	63298
#	86153
#	137038
#
# Disc length: 2241 seconds
#
# Revision: 0
# Processed by: cddbd v1.5.1PL0 Copyright (c) Steve Scherf et al.
# Submitted via: CDex 1.50
#
DISCID=3f08bf05
DTITLE=益田幹夫 - Mickey's Mouth
DYEAR=1976
DGENRE=Jazz
TTITLE0=What's Happening
TTITLE1=Let's Get Together
TTITLE2=Hello Jess
TTITLE3=I Saw The Light
TTITLE4=Airplane
EXTD=YEAR: 1976
EXTT0=
EXTT1=
EXTT2=
EXTT3=
EXTT4=
PLAYORDER=
